<svg xmlns="http://www.w3.org/2000/svg" width="222.557" height="222.557" viewBox="0 0 222.557 222.557">
  <path id="Shape" d="M111.278,222.557a112.008,112.008,0,0,1-22.417-2.262,110.663,110.663,0,0,1-39.785-16.752A111.676,111.676,0,0,1,8.749,154.579,110.79,110.79,0,0,1,2.262,133.7a112.227,112.227,0,0,1,0-44.834A110.684,110.684,0,0,1,19.013,49.075,111.683,111.683,0,0,1,67.977,8.749,110.76,110.76,0,0,1,88.861,2.262a112.227,112.227,0,0,1,44.834,0,110.68,110.68,0,0,1,39.786,16.751,111.7,111.7,0,0,1,40.326,48.965,110.756,110.756,0,0,1,6.487,20.884,112.226,112.226,0,0,1,0,44.834,110.659,110.659,0,0,1-16.752,39.786,111.7,111.7,0,0,1-48.964,40.326,110.787,110.787,0,0,1-20.884,6.487A112.008,112.008,0,0,1,111.278,222.557Zm.7-98.76a106.343,106.343,0,0,0-19.98,2.223,122.2,122.2,0,0,0-22.057,6.539c-7.574,3.111-13.6,6.7-17.9,10.658-4.911,4.519-7.442,9.425-7.521,14.581a79.965,79.965,0,0,0,13.053,14.92A81.064,81.064,0,0,0,73.692,183.9a82.223,82.223,0,0,0,76.564,0,81.062,81.062,0,0,0,16.128-11.179,79.955,79.955,0,0,0,13.053-14.92c-.079-5.155-2.615-10.061-7.536-14.581-4.313-3.961-10.345-7.547-17.93-10.658a122.535,122.535,0,0,0-22.062-6.539A106.059,106.059,0,0,0,111.974,123.8Zm-4.868-89.023a31.886,31.886,0,1,0,12.467,2.509A31.883,31.883,0,0,0,107.105,34.774Z" transform="translate(0 0)" fill="#e5e5ea"/>
</svg>
